<svg width="32" height="32" viewBox="0 0 32 32" fill="none" xmlns="http://www.w3.org/2000/svg">
<path d="M29.0457 15.1691C29.0457 14.9226 29.0681 14.7433 28.9116 14.5416C28.6433 14.183 28.3303 13.8468 28.0174 13.533C27.5255 13.0848 26.8772 12.7262 26.296 12.4349C24.9994 11.7849 23.6133 11.3367 22.2049 11.0229C19.254 10.373 16.1689 10.2609 13.151 10.3954C11.9214 10.4626 10.6919 10.5299 9.48466 10.754C9.01519 10.8436 8.54573 10.9333 8.09862 11.0902C7.6068 11.2471 7.09262 11.4263 6.69022 11.7401C6.55609 11.8298 6.44431 11.9418 6.33254 12.0539C6.24311 12.1659 6.15369 12.3004 6.08663 12.4349C6.01956 12.5469 5.93014 12.659 5.88543 12.7935C5.84071 12.9055 5.81836 12.9952 5.81836 13.0848C5.81836 13.1969 5.86307 13.2865 5.86307 13.3762C5.86307 13.3986 6.55609 13.4658 6.62316 13.4882C6.89142 13.533 7.15969 13.5555 7.42795 13.5779C8.4116 13.6899 9.41759 13.7796 10.4012 13.8692C12.4579 14.0485 14.537 14.2502 16.6161 14.4295C18.6057 14.6088 20.573 14.7657 22.5626 14.9674C24.5746 15.1691 26.5643 15.438 28.5986 15.3932C28.7104 15.3932 28.8445 15.3932 28.9563 15.3932C29.1128 15.3932 29.0457 15.326 29.0457 15.1691ZM11.1113 12.2224C10.776 12.4241 10.6669 12.4446 10.3342 12.7486C9.77528 13.3313 8.79164 13.0176 8.05391 12.9503C7.94213 12.9503 7.83035 12.9279 7.69622 12.9055C7.56209 12.8831 7.33853 12.9279 7.36089 12.7935C7.36089 12.6142 7.4056 12.4797 7.47267 12.3004C7.56209 12.0987 7.91977 12.0091 8.12097 11.9194C8.38924 11.8073 8.65751 11.7177 8.94813 11.6505C9.99884 11.3591 11.1166 11.1798 12.212 11.2022C12.2567 11.2022 12.3014 11.2022 12.3462 11.2022C11.9214 11.4936 11.5558 11.955 11.1113 12.2224Z" fill="#29813F"/>
<path d="M6.04286 4.52717C4.90273 4.45993 3.89673 3.36176 4.00851 2.21876C4.14264 0.986116 5.39455 0.112059 6.55704 0C6.10993 0.717175 5.3722 1.32229 5.14864 2.17394C4.90273 3.048 5.57339 3.85482 6.04286 4.52717Z" fill="#29813F"/>
<path d="M7.24902 9.20716C7.85262 7.72799 8.88097 6.47293 9.50693 4.99376C9.84226 4.20935 9.95404 3.42494 9.19395 2.88705C8.61271 2.46123 7.91969 2.23711 7.27138 1.99058C8.07618 1.65441 9.12688 1.632 9.93168 1.99058C10.893 2.41641 11.4295 3.40252 11.2954 4.43346C11.1612 5.57646 10.4682 6.6074 9.68577 7.43664C8.97039 8.15381 8.14324 8.78134 7.24902 9.20716Z" fill="#29813F"/>
<path d="M3.69464 14.9451C1.57087 14.833 -0.664677 12.8384 0.184832 10.5748C0.900207 8.6698 3.22518 7.5268 5.10304 7.28027C4.05233 8.51292 2.5098 9.4318 1.74972 10.911C0.944918 12.5246 2.66629 13.9366 3.69464 14.9451Z" fill="#29813F"/>
<path d="M20.3944 10.0368L16.1468 9.61095C15.8785 9.58854 15.6773 9.34201 15.7221 9.07307L15.8785 7.45942C15.9009 7.19048 16.1468 6.98877 16.4151 7.0336L20.6626 7.45942C20.9309 7.48183 21.1321 7.72836 21.0874 7.9973L20.9309 9.61095C20.9085 9.87989 20.6626 10.0592 20.3944 10.0368Z" fill="#2B823F"/>
<path d="M31.9971 19.2029L31.9523 18.7323C31.8853 18.1495 31.3711 17.7237 30.7899 17.791L28.1743 18.0599C28.1519 17.6565 27.8389 17.3203 27.4365 17.3203H6.55651C6.15411 17.3203 5.81878 17.6565 5.81878 18.0823V18.4857L3.35967 18.2392C2.77843 18.172 2.26425 18.5978 2.19719 19.1805L2.15248 19.6511C2.08541 20.2338 2.51016 20.7493 3.09141 20.8165L5.81878 21.1079V21.5561V22.1388V28.4365C5.81878 30.4088 6.95891 32 8.3673 32H25.6257C27.0341 32 28.1743 30.4088 28.1743 28.4365V22.1388V21.5561V20.6597L31.0358 20.3683C31.617 20.3235 32.0418 19.7856 31.9971 19.2029ZM12.3913 30.2967H9.3733C9.35095 30.2967 9.32859 30.2967 9.30623 30.2967H9.26152C8.34495 30.2967 7.60722 29.3778 7.60722 28.2348V22.0492C7.60722 21.982 7.60722 21.9371 7.60722 21.8699V20.5476C7.60722 20.2338 7.87548 19.9649 8.18846 19.9649H9.26152H9.30623H9.3733H11.5194H12.3913V30.2967Z" fill="#2B823F"/>
</svg>
