<svg width="98" height="26" viewBox="0 0 98 26" fill="none" xmlns="http://www.w3.org/2000/svg">
<path d="M88.4262 20.5797C87.499 20.5797 86.6759 20.425 85.9569 20.1156C85.2442 19.8 84.6797 19.3265 84.2634 18.6952C83.8534 18.0576 83.6484 17.259 83.6484 16.2994C83.6484 15.4913 83.7904 14.8095 84.0742 14.2539C84.358 13.6984 84.7491 13.247 85.2473 12.8998C85.7456 12.5525 86.3196 12.2905 86.9692 12.1138C87.6189 11.9307 88.3127 11.8076 89.0506 11.7445C89.8769 11.6687 90.5423 11.5898 91.0469 11.5077C91.5515 11.4193 91.9173 11.2962 92.1444 11.1384C92.3777 10.9743 92.4944 10.7438 92.4944 10.4471V10.3998C92.4944 9.91365 92.3273 9.53802 91.993 9.27287C91.6587 9.00772 91.2077 8.87514 90.6401 8.87514C90.0283 8.87514 89.5363 9.00772 89.1642 9.27287C88.792 9.53802 88.5555 9.90418 88.4546 10.3713L84.1877 10.2198C84.3139 9.336 84.6387 8.54686 85.1622 7.85242C85.692 7.15166 86.4173 6.60242 87.3382 6.20469C88.2654 5.80065 89.3786 5.59863 90.6779 5.59863C91.6051 5.59863 92.4597 5.70911 93.2418 5.93007C94.0239 6.14472 94.7051 6.46037 95.2854 6.87704C95.8657 7.28739 96.3135 7.79244 96.6289 8.39219C96.9505 8.99193 97.1114 9.67691 97.1114 10.4471V20.3334H92.7593V18.3069H92.6458C92.3872 18.7994 92.0561 19.216 91.6524 19.5569C91.255 19.8978 90.7852 20.1535 90.2427 20.324C89.7066 20.4944 89.1011 20.5797 88.4262 20.5797ZM89.8548 17.5494C90.3531 17.5494 90.8009 17.4484 91.1983 17.2463C91.6019 17.0443 91.9236 16.7665 92.1633 16.413C92.403 16.0532 92.5228 15.6365 92.5228 15.163V13.7804C92.3904 13.8499 92.2295 13.913 92.0403 13.9698C91.8574 14.0266 91.6556 14.0803 91.4348 14.1308C91.214 14.1813 90.987 14.2255 90.7536 14.2634C90.5202 14.3013 90.2963 14.336 90.0819 14.3676C89.6467 14.437 89.2746 14.5443 88.9655 14.6895C88.6627 14.8347 88.4294 15.0241 88.2654 15.2577C88.1077 15.485 88.0289 15.7564 88.0289 16.0721C88.0289 16.5519 88.1992 16.9181 88.5397 17.1706C88.8867 17.4231 89.325 17.5494 89.8548 17.5494Z" fill="#2B823F"/>
<path d="M73.8803 20.5797C72.9531 20.5797 72.13 20.425 71.411 20.1156C70.6983 19.8 70.1338 19.3265 69.7175 18.6952C69.3075 18.0576 69.1025 17.259 69.1025 16.2994C69.1025 15.4913 69.2445 14.8095 69.5283 14.2539C69.8121 13.6984 70.2032 13.247 70.7014 12.8998C71.1997 12.5525 71.7737 12.2905 72.4233 12.1138C73.073 11.9307 73.7668 11.8076 74.5047 11.7445C75.331 11.6687 75.9964 11.5898 76.501 11.5077C77.0056 11.4193 77.3714 11.2962 77.5985 11.1384C77.8318 10.9743 77.9485 10.7438 77.9485 10.4471V10.3998C77.9485 9.91365 77.7814 9.53802 77.4471 9.27287C77.1128 9.00772 76.6618 8.87514 76.0942 8.87514C75.4824 8.87514 74.9904 9.00772 74.6183 9.27287C74.2461 9.53802 74.0096 9.90418 73.9087 10.3713L69.6418 10.2198C69.768 9.336 70.0928 8.54686 70.6163 7.85242C71.1461 7.15166 71.8714 6.60242 72.7923 6.20469C73.7195 5.80065 74.8327 5.59863 76.132 5.59863C77.0592 5.59863 77.9138 5.70911 78.6959 5.93007C79.4781 6.14472 80.1592 6.46037 80.7395 6.87704C81.3198 7.28739 81.7676 7.79244 82.083 8.39219C82.4046 8.99193 82.5655 9.67691 82.5655 10.4471V20.3334H78.2134V18.3069H78.0999C77.8413 18.7994 77.5102 19.216 77.1065 19.5569C76.7091 19.8978 76.2393 20.1535 75.6968 20.324C75.1607 20.4944 74.5552 20.5797 73.8803 20.5797ZM75.3089 17.5494C75.8072 17.5494 76.255 17.4484 76.6524 17.2463C77.056 17.0443 77.3777 16.7665 77.6174 16.413C77.8571 16.0532 77.9769 15.6365 77.9769 15.163V13.7804C77.8445 13.8499 77.6836 13.913 77.4944 13.9698C77.3115 14.0266 77.1097 14.0803 76.8889 14.1308C76.6682 14.1813 76.4411 14.2255 76.2077 14.2634C75.9743 14.3013 75.7504 14.336 75.536 14.3676C75.1008 14.437 74.7287 14.5443 74.4196 14.6895C74.1168 14.8347 73.8835 15.0241 73.7195 15.2577C73.5618 15.485 73.483 15.7564 73.483 16.0721C73.483 16.5519 73.6533 16.9181 73.9939 17.1706C74.3408 17.4231 74.7791 17.5494 75.3089 17.5494Z" fill="#2B823F"/>
<path d="M59.1157 20.5417C58.0434 20.5417 57.0689 20.2639 56.1922 19.7084C55.3155 19.1528 54.6154 18.3195 54.0919 17.2084C53.5684 16.0972 53.3066 14.7178 53.3066 13.0701C53.3066 11.3593 53.5779 9.95143 54.1203 8.84663C54.6627 7.74184 55.3723 6.92429 56.249 6.39399C57.132 5.86369 58.0813 5.59853 59.0967 5.59853C59.8599 5.59853 60.5127 5.73111 61.0552 5.99626C61.5976 6.2551 62.0454 6.58969 62.3986 7.00005C62.7518 7.4104 63.0199 7.83653 63.2028 8.27845H63.2974V0.939453H67.9238V20.3333H63.3447V17.9754H63.2028C63.0073 18.4236 62.7298 18.8435 62.3702 19.2349C62.0107 19.6263 61.5597 19.9419 61.0173 20.1818C60.4812 20.4217 59.8473 20.5417 59.1157 20.5417ZM60.724 16.9337C61.2854 16.9337 61.7647 16.7759 62.1621 16.4603C62.5595 16.1383 62.8654 15.6869 63.0798 15.1061C63.2943 14.5253 63.4015 13.8435 63.4015 13.0606C63.4015 12.2652 63.2943 11.5802 63.0798 11.0057C62.8717 10.4312 62.5658 9.98931 62.1621 9.67997C61.7647 9.37062 61.2854 9.21595 60.724 9.21595C60.1501 9.21595 59.6644 9.37378 59.267 9.68943C58.8697 10.0051 58.5669 10.4502 58.3588 11.0247C58.157 11.5992 58.056 12.2778 58.056 13.0606C58.056 13.8435 58.1601 14.5253 58.3683 15.1061C58.5764 15.6869 58.876 16.1383 59.267 16.4603C59.6644 16.7759 60.1501 16.9337 60.724 16.9337Z" fill="#2B823F"/>
<path d="M38.2506 20.6081C36.7305 20.6081 35.4186 20.3082 34.3148 19.7085C33.2173 19.1024 32.3722 18.2407 31.7793 17.1232C31.1927 15.9995 30.8994 14.6643 30.8994 13.1176C30.8994 11.615 31.1959 10.3019 31.7887 9.17817C32.3816 8.04812 33.2173 7.1706 34.2959 6.5456C35.3744 5.91429 36.6454 5.59863 38.1087 5.59863C39.1431 5.59863 40.0891 5.75962 40.9469 6.08159C41.8047 6.40355 42.5458 6.8802 43.1703 7.51151C43.7947 8.14282 44.2804 8.92249 44.6273 9.85052C44.9742 10.7722 45.1476 11.8297 45.1476 13.0229V14.1782H32.5172V11.4888H40.8429C40.8366 10.9963 40.7199 10.5576 40.4928 10.1725C40.2658 9.78739 39.9535 9.48751 39.5562 9.27287C39.1651 9.05191 38.7142 8.94143 38.2033 8.94143C37.6861 8.94143 37.2225 9.05822 36.8125 9.29181C36.4025 9.51908 36.0777 9.83158 35.838 10.2293C35.5984 10.6207 35.4722 11.0658 35.4596 11.5645V14.3013C35.4596 14.8947 35.5763 15.4155 35.8096 15.8638C36.043 16.3057 36.3742 16.6497 36.803 16.896C37.2319 17.1422 37.7428 17.2653 38.3357 17.2653C38.7457 17.2653 39.1178 17.2085 39.4521 17.0948C39.7864 16.9812 40.0734 16.8139 40.3131 16.5929C40.5527 16.372 40.7325 16.1005 40.8523 15.7785L45.1003 15.9016C44.9237 16.8549 44.5358 17.6851 43.9366 18.3922C43.3437 19.0929 42.5648 19.639 41.5997 20.0304C40.6347 20.4155 39.5183 20.6081 38.2506 20.6081Z" fill="#2B823F"/>
<path d="M23.2633 20.6081C21.7432 20.6081 20.4313 20.3082 19.3275 19.7085C18.23 19.1024 17.3849 18.2407 16.792 17.1232C16.2054 15.9995 15.9121 14.6643 15.9121 13.1176C15.9121 11.615 16.2086 10.3019 16.8014 9.17817C17.3943 8.04812 18.23 7.1706 19.3086 6.5456C20.3871 5.91429 21.6581 5.59863 23.1214 5.59863C24.1558 5.59863 25.1018 5.75962 25.9596 6.08159C26.8174 6.40355 27.5585 6.8802 28.183 7.51151C28.8074 8.14282 29.293 8.92249 29.6399 9.85052C29.9868 10.7722 30.1603 11.8297 30.1603 13.0229V14.1782H17.5299V11.4888H25.8556C25.8493 10.9963 25.7326 10.5576 25.5055 10.1725C25.2785 9.78739 24.9662 9.48751 24.5689 9.27287C24.1778 9.05191 23.7269 8.94143 23.216 8.94143C22.6988 8.94143 22.2352 9.05822 21.8252 9.29181C21.4152 9.51908 21.0904 9.83158 20.8507 10.2293C20.611 10.6207 20.4849 11.0658 20.4723 11.5645V14.3013C20.4723 14.8947 20.589 15.4155 20.8223 15.8638C21.0557 16.3057 21.3868 16.6497 21.8157 16.896C22.2446 17.1422 22.7555 17.2653 23.3484 17.2653C23.7584 17.2653 24.1305 17.2085 24.4648 17.0948C24.7991 16.9812 25.0861 16.8139 25.3258 16.5929C25.5654 16.372 25.7452 16.1005 25.865 15.7785L30.113 15.9016C29.9364 16.8549 29.5485 17.6851 28.9493 18.3922C28.3564 19.0929 27.5775 19.639 26.6124 20.0304C25.6474 20.4155 24.531 20.6081 23.2633 20.6081Z" fill="#2B823F"/>
<path d="M4.96225 25.788C4.40721 25.788 3.8837 25.7439 3.39173 25.6555C2.89976 25.5734 2.47717 25.4629 2.12396 25.324L3.14575 21.9623C3.59987 22.1138 4.00985 22.2022 4.37567 22.2274C4.7478 22.2527 5.06632 22.1927 5.33123 22.0475C5.60244 21.9086 5.81058 21.6593 5.95565 21.2994L6.13541 20.8638L0.969727 5.78809H5.81373L8.49118 16.1669H8.64256L11.3579 5.78809H16.2302L10.7524 21.7256C10.4874 22.521 10.1122 23.2218 9.6265 23.8278C9.14714 24.4402 8.52587 24.92 7.76269 25.2672C7.00581 25.6144 6.07233 25.788 4.96225 25.788Z" fill="#2B823F"/>
<path d="M52.175 11.2222C52.9785 12.6957 52.7746 15.5972 51.2863 16.3325C49.6707 17.1085 46.846 16.3325 45.6893 14.5579C47.29 14.5547 48.2929 14.2618 49.5108 13.8889C50.8423 13.2214 51.7155 12.3223 52.175 11.2222Z" fill="#29813F"/>
</svg>
