<svg width="65" height="64" viewBox="0 0 65 64" fill="none" xmlns="http://www.w3.org/2000/svg">
<path d="M58.9801 30.3382C58.9801 29.8452 59.0248 29.4866 58.7118 29.0832C58.1753 28.366 57.5493 27.6936 56.9234 27.0661C55.9398 26.1696 54.6431 25.4525 53.4806 24.8697C50.8874 23.5699 48.1153 22.6734 45.2985 22.0459C39.3967 20.746 33.2266 20.5219 27.1906 20.7908C24.7315 20.9253 22.2724 21.0598 19.858 21.508C18.9191 21.6873 17.9801 21.8666 17.0859 22.1803C16.1023 22.4941 15.0739 22.8527 14.2691 23.4802C14.0009 23.6595 13.7773 23.8836 13.5537 24.1077C13.3749 24.3319 13.1961 24.6008 13.0619 24.8697C12.9278 25.0939 12.7489 25.318 12.6595 25.5869C12.5701 25.811 12.5254 25.9903 12.5254 26.1696C12.5254 26.3937 12.6148 26.573 12.6148 26.7523C12.6148 26.7972 14.0009 26.9316 14.135 26.9765C14.6715 27.0661 15.208 27.1109 15.7446 27.1557C17.7119 27.3799 19.7239 27.5592 21.6911 27.7385C25.8046 28.097 29.9627 28.5004 34.1208 28.859C38.1001 29.2176 42.0346 29.5314 46.0139 29.9348C50.0379 30.3382 54.0172 30.8761 58.0859 30.7864C58.3094 30.7864 58.5777 30.7864 58.8013 30.7864C59.1142 30.7864 58.9801 30.652 58.9801 30.3382ZM23.1113 24.4448C22.4406 24.8482 22.2224 24.8892 21.557 25.4973C20.4392 26.6627 18.472 26.0352 16.9965 25.9007C16.7729 25.9007 16.5494 25.8559 16.2811 25.811C16.0128 25.7662 15.5657 25.8559 15.6104 25.5869C15.6104 25.2283 15.6999 24.9594 15.834 24.6008C16.0128 24.1974 16.7282 24.0181 17.1306 23.8388C17.6672 23.6147 18.2037 23.4354 18.7849 23.3009C20.8863 22.7182 23.1219 22.3596 25.3127 22.4045C25.4022 22.4045 25.4916 22.4045 25.581 22.4045C24.7315 22.9872 24.0002 23.9101 23.1113 24.4448Z" fill="#29813F"/>
<path d="M12.9749 9.05434C10.6946 8.91987 8.68263 6.72352 8.90618 4.43752C9.17445 1.97223 11.6783 0.224117 14.0032 0C13.109 1.43435 11.6336 2.64458 11.1864 4.34788C10.6946 6.09599 12.0359 7.70964 12.9749 9.05434Z" fill="#29813F"/>
<path d="M15.3867 18.4143C16.5939 15.456 18.6506 12.9459 19.9025 9.98751C20.5732 8.41869 20.7967 6.84987 19.2766 5.77411C18.1141 4.92246 16.728 4.47423 15.4314 3.98117C17.041 3.30882 19.1424 3.26399 20.752 3.98117C22.6746 4.83282 23.7477 6.80505 23.4794 8.86693C23.2111 11.1529 21.8251 13.2148 20.2602 14.8733C18.8295 16.3076 17.1752 17.5627 15.3867 18.4143Z" fill="#29813F"/>
<path d="M8.27845 29.8902C4.0309 29.6661 -0.440194 25.6768 1.25882 21.1496C2.68957 17.3396 7.33952 15.0536 11.0952 14.5605C8.99382 17.0258 5.90877 18.8636 4.38859 21.8219C2.779 25.0492 6.22174 27.8731 8.27845 29.8902Z" fill="#29813F"/>
<path d="M41.6774 20.0735L33.1823 19.2219C32.6458 19.1771 32.2434 18.684 32.3328 18.1461L32.6458 14.9188C32.6905 14.381 33.1823 13.9775 33.7188 14.0672L42.2139 14.9188C42.7504 14.9637 43.1528 15.4567 43.0634 15.9946L42.7504 19.2219C42.7057 19.7598 42.2139 20.1184 41.6774 20.0735Z" fill="#2B823F"/>
<path d="M64.8833 38.4058L64.7938 37.4645C64.6597 36.2991 63.6314 35.4474 62.4689 35.5819L57.2377 36.1198C57.193 35.313 56.567 34.6406 55.7622 34.6406H14.0022C13.1974 34.6406 12.5267 35.313 12.5267 36.1646V36.9714L7.60851 36.4784C6.44602 36.3439 5.41767 37.1956 5.28354 38.361L5.19411 39.3023C5.05998 40.4677 5.90949 41.4986 7.07198 41.6331L12.5267 42.2158V43.1123V44.2777V56.8731C12.5267 60.8175 14.807 64 17.6238 64H52.1406C54.9574 64 57.2377 60.8175 57.2377 56.8731V44.2777V43.1123V41.3193L62.9607 40.7366C64.1232 40.647 64.9727 39.5712 64.8833 38.4058ZM25.6717 60.5934H19.6358C19.5911 60.5934 19.5463 60.5934 19.5016 60.5934H19.4122C17.5791 60.5934 16.1036 58.7557 16.1036 56.4697V44.0984C16.1036 43.9639 16.1036 43.8743 16.1036 43.7398V41.0952C16.1036 40.4677 16.6401 39.9298 17.2661 39.9298H19.4122H19.5016H19.6358H23.928H25.6717V60.5934Z" fill="#2B823F"/>
</svg>
